HIERARCHY
ROOT Hips
{
 OFFSET 0.000000 0.000000 0.000000
 CHANNELS 6 Xposition Yposition Zposition Yrotation Xrotation Zrotation
 JOINT Chest
 {
  OFFSET 0.000000 9.585900 0.002600
  CHANNELS 3 Yrotation Xrotation Zrotation
  JOINT Chest2
  {
   OFFSET 0.000000 9.601200 -0.005300
   CHANNELS 3 Yrotation Xrotation Zrotation
   JOINT Chest3
   {
    OFFSET 0.000000 9.561800 0.000000
    CHANNELS 3 Yrotation Xrotation Zrotation
    JOINT Chest4
    {
     OFFSET 0.000000 9.552100 0.000000
     CHANNELS 3 Yrotation Xrotation Zrotation
     JOINT Neck
     {
      OFFSET 0.000000 14.453000 0.000000
      CHANNELS 3 Yrotation Xrotation Zrotation
      JOINT Head
      {
       OFFSET 0.000000 8.936500 -0.011300
       CHANNELS 3 Yrotation Xrotation Zrotation
       End Site
       {
        OFFSET 0.000000 17.073600 -0.006000
       }
      }
     }
     JOINT RightCollar
     {
      OFFSET -2.921100 9.558500 0.000000
      CHANNELS 3 Yrotation Xrotation Zrotation
      JOINT RightShoulder
      {
       OFFSET -13.519700 0.000000 0.000000
       CHANNELS 3 Yrotation Xrotation Zrotation
       JOINT RightElbow
       {
        OFFSET 0.000000 -29.696600 0.000000
        CHANNELS 3 Yrotation Xrotation Zrotation
        JOINT RightWrist
        {
         OFFSET 0.000000 -24.004700 0.000000
         CHANNELS 3 Yrotation Xrotation Zrotation
         End Site
         {
          OFFSET 0.000000 -17.728500 0.000000
         }
        }
       }
      }
     }
     JOINT LeftCollar
     {
      OFFSET 2.921100 9.558500 0.000000
      CHANNELS 3 Yrotation Xrotation Zrotation
      JOINT LeftShoulder
      {
       OFFSET 13.519700 0.000000 0.000000
       CHANNELS 3 Yrotation Xrotation Zrotation
       JOINT LeftElbow
       {
        OFFSET 0.000000 -29.696600 0.000000
        CHANNELS 3 Yrotation Xrotation Zrotation
        JOINT LeftWrist
        {
         OFFSET 0.000000 -24.004700 0.000000
         CHANNELS 3 Yrotation Xrotation Zrotation
         End Site
         {
          OFFSET 0.000000 -17.728500 0.000000
         }
        }
       }
      }
     }
    }
   }
  }
 }
 JOINT RightHip
 {
  OFFSET -7.771700 -0.012900 -0.001300
  CHANNELS 3 Yrotation Xrotation Zrotation
  JOINT RightKnee
  {
   OFFSET 0.000000 -40.869800 0.001200
   CHANNELS 3 Yrotation Xrotation Zrotation
   JOINT RightAnkle
   {
    OFFSET 0.000000 -39.717900 0.002100
    CHANNELS 3 Yrotation Xrotation Zrotation
    JOINT RightToe
    {
     OFFSET 0.000000 -4.965400 11.033500
     CHANNELS 3 Yrotation Xrotation Zrotation
     End Site
     {
      OFFSET 0.000000 -1.423100 5.872300
     }
    }
   }
  }
 }
 JOINT LeftHip
 {
  OFFSET 7.771700 -0.012900 -0.001300
  CHANNELS 3 Yrotation Xrotation Zrotation
  JOINT LeftKnee
  {
   OFFSET 0.000000 -40.869800 0.001200
   CHANNELS 3 Yrotation Xrotation Zrotation
   JOINT LeftAnkle
   {
    OFFSET 0.000000 -39.717900 0.002100
    CHANNELS 3 Yrotation Xrotation Zrotation
    JOINT LeftToe
    {
     OFFSET 0.000000 -4.965400 11.033500
     CHANNELS 3 Yrotation Xrotation Zrotation
     End Site
     {
      OFFSET 0.000000 -1.423100 5.872300
     }
    }
   }
  }
 }
}
MOTION
Frames: 6
Frame Time: 0.008333
-54.444388 54.987907 47.216706 -178.534563 -30.586562 -10.524112 -0.229737 13.144351 4.999766 -0.156071 7.602751 1.969822 -0.160294 9.505065 2.461647 -0.156966 7.601806 1.969454 2.045931 19.678897 -2.517565 2.830728 -4.693644 -3.225927 0.758811 1.614073 -2.854214 -14.289588 -6.641198 8.700002 -19.243964 -71.347291 30.025273 9.366323 -3.469638 -10.630051 -8.352945 3.660678 -3.791305 7.444098 -1.476386 -0.148176 -110.374923 -82.402201 115.731803 12.952348 -1.770032 -6.820138 -19.237482 -35.674827 4.755167 -6.263313 87.622944 -9.325158 2.779735 -17.812006 0.548255 -0.043535 0.478019 -0.018117 -13.741213 -47.641214 14.893386 172.011476 79.648122 166.724486 -2.036980 -16.367081 3.126078 -0.601199 -2.149851 -0.270927
-54.442756 54.995283 47.216734 -178.524021 -30.610581 -10.522528 -0.223082 13.154844 5.004018 -0.152091 7.606414 1.972049 -0.174470 9.511431 2.455994 -0.156125 7.602189 1.970065 2.074849 19.747658 -2.542467 2.819049 -4.656610 -3.271743 0.751102 1.630585 -2.848682 -14.289449 -6.651531 8.703982 -19.092502 -71.416901 29.900938 9.356768 -3.476689 -10.654434 -8.354108 3.676112 -3.792307 7.474680 -1.457281 -0.158104 -110.582192 -82.407017 116.070603 12.982135 -1.772135 -6.911606 -19.232601 -35.655428 4.756826 -6.856890 87.628696 -9.894286 2.619321 -17.819639 0.582699 -0.036121 0.479957 -0.024845 -13.732549 -47.621351 14.874332 171.980651 79.645507 166.694963 -2.037080 -16.362235 3.128295 -0.603278 -2.153404 -0.274667
-54.440434 55.002878 47.216847 -178.516283 -30.634275 -10.525002 -0.213561 13.165909 5.013390 -0.147323 7.611514 1.974617 -0.169713 9.513733 2.458897 -0.152529 7.605949 1.971885 2.074916 19.818005 -2.611794 2.790452 -4.655647 -3.286784 0.717600 1.657818 -2.837370 -14.283057 -6.673057 8.707878 -18.711421 -71.503302 29.548922 9.344711 -3.512618 -10.719740 -8.332615 3.771037 -3.788904 7.496965 -1.488409 -0.190281 -111.207275 -82.444479 116.734027 13.015066 -1.790204 -6.916632 -19.232057 -35.633862 4.758111 -7.099124 87.634033 -10.129355 2.539942 -17.825961 0.600076 -0.000290 0.482508 -0.027964 -13.727194 -47.601426 14.863268 171.947958 79.641700 166.665811 -2.039273 -16.356217 3.127480 -0.603873 -2.158697 -0.276368
-54.438243 55.009689 47.218398 -178.513579 -30.649067 -10.524605 -0.204424 13.170890 5.019847 -0.138996 7.614488 1.979387 -0.136343 9.521947 2.474197 -0.174542 7.608532 1.966278 2.052476 19.855212 -2.668308 2.768737 -4.632193 -3.321365 0.672780 1.712920 -2.814660 -14.260930 -6.730184 8.700002 -18.191865 -71.603336 29.055084 9.349333 -3.568511 -10.828908 -8.325951 3.834631 -3.785738 7.583457 -1.457492 -0.218803 -112.247778 -82.488502 117.722538 13.076840 -1.826536 -6.853922 -19.228046 -35.623058 4.757275 -7.130149 87.640205 -10.158426 2.501483 -17.831296 0.609017 -0.029724 0.485829 -0.028738 -13.723728 -47.589035 14.857155 171.945131 79.641677 166.663922 -2.037373 -16.356145 3.126198 -0.601817 -2.157492 -0.274399
-54.435738 55.016260 47.220558 -178.510135 -30.661024 -10.526735 -0.201886 13.179768 5.023125 -0.133175 7.614680 1.982730 -0.132837 9.525664 2.475855 -0.157144 7.614735 1.974442 2.021446 19.866202 -2.697579 2.746803 -4.570027 -3.384208 0.634848 1.752815 -2.806592 -14.238407 -6.763762 8.692728 -17.493748 -71.734523 28.385088 9.360482 -3.640305 -10.983511 -8.340625 3.853791 -3.787651 7.657945 -1.412374 -0.230479 -113.153428 -82.566758 118.606393 13.157649 -1.878101 -6.773701 -19.220968 -35.613470 4.751734 -6.944461 87.642207 -9.987318 2.560994 -17.838452 0.599624 -0.049575 0.490729 -0.023499 -13.725530 -47.579214 14.855962 171.938267 79.641189 166.656783 -2.033510 -16.355785 3.127241 -0.605533 -2.155651 -0.277475
-54.435595 55.024344 47.219501 -178.500966 -30.695695 -10.518283 -0.195995 13.203138 5.020070 -0.135987 7.623426 1.979613 -0.128584 9.529528 2.477251 -0.135920 7.623389 1.979709 1.981076 19.918380 -2.753327 2.712051 -4.538541 -3.414499 0.597852 1.778096 -2.801362 -14.219580 -6.779623 8.689256 -16.593562 -71.894251 27.518705 9.380698 -3.724669 -11.178851 -8.358451 3.870992 -3.784704 7.711642 -1.380680 -0.242306 -113.910855 -82.626585 119.348566 13.271970 -1.942362 -6.670009 -19.204271 -35.584836 4.710209 -6.385055 87.650299 -9.444980 2.654607 -17.849141 0.575541 -0.049620 0.494898 -0.017612 -13.702564 -47.544086 14.822474 171.939930 79.646368 166.659501 -2.034870 -16.359611 3.125135 -0.601606 -2.151117 -0.275084
